<svg xmlns="http://www.w3.org/2000/svg" viewBox="0 0 1600 1000" width="1600" height="1000" role="img" preserveAspectRatio="xMidYMid slice"><defs>
<filter id="grain" x="0" y="0" width="100%" height="100%">
  <feTurbulence type="fractalNoise" baseFrequency="0.9" numOctaves="3" stitchTiles="stitch" seed="7"/>
  <feColorMatrix type="saturate" values="0"/>
</filter>
<filter id="bloom" x="-60%" y="-60%" width="220%" height="220%">
  <feGaussianBlur stdDeviation="46"/>
</filter>
<filter id="haze" x="-30%" y="-200%" width="160%" height="500%">
  <feGaussianBlur stdDeviation="26"/>
</filter>
<filter id="soft" x="-30%" y="-30%" width="160%" height="160%">
  <feGaussianBlur stdDeviation="12"/>
</filter>
<radialGradient id="vig" ><stop offset="0.55" stop-color="#000814" stop-opacity="0"/><stop offset="1" stop-color="#000814" stop-opacity="0.38"/></radialGradient>
<linearGradient id="bg" x1="0" y1="0" x2="1" y2="1"><stop offset="0" stop-color="#050D1A" stop-opacity="1"/><stop offset="0.45" stop-color="#0A2540" stop-opacity="1"/><stop offset="1" stop-color="#123A5F" stop-opacity="1"/></linearGradient><radialGradient id="blobA" ><stop offset="0" stop-color="#F5A623" stop-opacity="0.6"/><stop offset="1" stop-color="#F5A623" stop-opacity="0"/></radialGradient><radialGradient id="blobB" ><stop offset="0" stop-color="#3F7FB0" stop-opacity="0.55"/><stop offset="1" stop-color="#3F7FB0" stop-opacity="0"/></radialGradient></defs><rect width="1600" height="1000" fill="url(#bg)"/><circle cx="1476.7" cy="469" r="377.3" fill="url(#blobA)" opacity="0.55"/><circle cx="426" cy="770.1" r="362.6" fill="url(#blobB)" opacity="0.55"/><circle cx="1042.4" cy="704.6" r="442.3" fill="url(#blobA)" opacity="0.55"/><circle cx="749.8" cy="166.2" r="297.2" fill="url(#blobB)" opacity="0.55"/><circle cx="1113.3" cy="869.3" r="359.3" fill="url(#blobA)" opacity="0.55"/><path d="M -80 319.3 C -47.4 324.7, 50.4 345.9, 115.6 351.6 C 180.7 357.3, 245.9 356.4, 311.1 353.5 C 376.3 350.6, 441.5 340.3, 506.7 334.3 C 571.9 328.2, 637 326.9, 702.2 317 C 767.4 307.2, 832.6 278, 897.8 274.9 C 963 271.9, 1028.1 296.3, 1093.3 298.9 C 1158.5 301.5, 1223.7 286.1, 1288.9 290.8 C 1354.1 295.5, 1419.3 313.7, 1484.4 327 C 1549.6 340.4, 1647.4 363.7, 1680 371.1" fill="none" stroke="#FFFFFF" stroke-opacity="0.1" stroke-width="1.6"/><path d="M -80 619.9 C -47.4 623.4, 50.4 643.6, 115.6 640.6 C 180.7 637.5, 245.9 611.9, 311.1 601.5 C 376.3 591, 441.5 584, 506.7 577.9 C 571.9 571.7, 637 566.6, 702.2 564.5 C 767.4 562.4, 832.6 566.2, 897.8 565.1 C 963 564, 1028.1 552.2, 1093.3 557.9 C 1158.5 563.7, 1223.7 584.8, 1288.9 599.5 C 1354.1 614.2, 1419.3 638.4, 1484.4 646.1 C 1549.6 653.8, 1647.4 645.8, 1680 645.7" fill="none" stroke="#FFFFFF" stroke-opacity="0.1" stroke-width="1.6"/><path d="M -80 453.8 C -47.4 447.8, 50.4 431.7, 115.6 417.7 C 180.7 403.7, 245.9 378.8, 311.1 370 C 376.3 361.2, 441.5 367.7, 506.7 364.8 C 571.9 362, 637 349.6, 702.2 352.8 C 767.4 356, 832.6 374.6, 897.8 384 C 963 393.4, 1028.1 396.1, 1093.3 409.1 C 1158.5 422.2, 1223.7 455.4, 1288.9 462.1 C 1354.1 468.8, 1419.3 458.6, 1484.4 449.5 C 1549.6 440.3, 1647.4 414.1, 1680 407.1" fill="none" stroke="#FFFFFF" stroke-opacity="0.1" stroke-width="1.6"/><path d="M -80 620.5 C -47.4 616.5, 50.4 604, 115.6 596.5 C 180.7 589, 245.9 579.1, 311.1 575.4 C 376.3 571.6, 441.5 568.2, 506.7 573.8 C 571.9 579.4, 637 595.5, 702.2 608.9 C 767.4 622.3, 832.6 648.8, 897.8 654.3 C 963 659.8, 1028.1 644.2, 1093.3 641.9 C 1158.5 639.6, 1223.7 644.9, 1288.9 640.4 C 1354.1 635.9, 1419.3 622.7, 1484.4 615 C 1549.6 607.3, 1647.4 597.9, 1680 594.5" fill="none" stroke="#FFFFFF" stroke-opacity="0.1" stroke-width="1.6"/><path d="M -80 255 C -47.4 251.7, 50.4 230.7, 115.6 235.1 C 180.7 239.5, 245.9 270.8, 311.1 281.5 C 376.3 292.2, 441.5 289.8, 506.7 299.4 C 571.9 309, 637 335.9, 702.2 339.1 C 767.4 342.3, 832.6 320.9, 897.8 318.8 C 963 316.8, 1028.1 332.3, 1093.3 326.8 C 1158.5 321.4, 1223.7 296.4, 1288.9 286 C 1354.1 275.7, 1419.3 271.4, 1484.4 265 C 1549.6 258.6, 1647.4 250.5, 1680 247.7" fill="none" stroke="#FFFFFF" stroke-opacity="0.1" stroke-width="1.6"/><path d="M -80 450.1 C -47.4 456.4, 50.4 475.7, 115.6 488 C 180.7 500.4, 245.9 513.5, 311.1 524.3 C 376.3 535.1, 441.5 550.6, 506.7 552.7 C 571.9 554.8, 637 540.3, 702.2 536.9 C 767.4 533.5, 832.6 540.9, 897.8 532.1 C 963 523.3, 1028.1 496.1, 1093.3 484 C 1158.5 471.9, 1223.7 465.3, 1288.9 459.4 C 1354.1 453.5, 1419.3 445.1, 1484.4 448.6 C 1549.6 452.1, 1647.4 475.3, 1680 480.6" fill="none" stroke="#FFFFFF" stroke-opacity="0" stroke-width="1.6"/><path d="M -80 752.4 C -47.4 756.4, 50.4 770.9, 115.6 776.3 C 180.7 781.6, 245.9 780.7, 311.1 784.6 C 376.3 788.6, 441.5 801.5, 506.7 799.9 C 571.9 798.3, 637 786.5, 702.2 775 C 767.4 763.5, 832.6 740.9, 897.8 731.1 C 963 721.3, 1028.1 715.6, 1093.3 716.1 C 1158.5 716.5, 1223.7 727.2, 1288.9 733.7 C 1354.1 740.2, 1419.3 746.4, 1484.4 755.2 C 1549.6 764, 1647.4 781.3, 1680 786.5" fill="none" stroke="#FFFFFF" stroke-opacity="0.1" stroke-width="1.6"/><path d="M -80 613.8 C -47.4 611, 50.4 600.4, 115.6 597.2 C 180.7 593.9, 245.9 599, 311.1 594.5 C 376.3 590, 441.5 577, 506.7 570.3 C 571.9 563.6, 637 564, 702.2 554.3 C 767.4 544.5, 832.6 513.7, 897.8 511.6 C 963 509.6, 1028.1 532.4, 1093.3 542.2 C 1158.5 552, 1223.7 563, 1288.9 570.4 C 1354.1 577.7, 1419.3 576.4, 1484.4 586.3 C 1549.6 596.1, 1647.4 622.5, 1680 629.7" fill="none" stroke="#FFFFFF" stroke-opacity="0.1" stroke-width="1.6"/><path d="M -80 409.7 C -47.4 410.6, 50.4 421.2, 115.6 414.7 C 180.7 408.2, 245.9 385.7, 311.1 370.9 C 376.3 356.1, 441.5 332.1, 506.7 326 C 571.9 319.8, 637 329.8, 702.2 333.8 C 767.4 337.7, 832.6 340.3, 897.8 349.8 C 963 359.4, 1028.1 382.6, 1093.3 391.2 C 1158.5 399.8, 1223.7 395.2, 1288.9 401.3 C 1354.1 407.4, 1419.3 428.4, 1484.4 428 C 1549.6 427.5, 1647.4 403.3, 1680 398.4" fill="none" stroke="#FFFFFF" stroke-opacity="0.1" stroke-width="1.6"/><circle cx="1057.2" cy="22.2" r="2.4" fill="#FFFFFF" opacity="0.2"/><circle cx="1413.1" cy="850.1" r="1.5" fill="#FFFFFF" opacity="0.2"/><circle cx="973.3" cy="93" r="1.6" fill="#FFFFFF" opacity="0.4"/><circle cx="868" cy="286.5" r="2.9" fill="#FFFFFF" opacity="0.4"/><circle cx="204.9" cy="37.4" r="1.9" fill="#FFFFFF" opacity="0.4"/><circle cx="827.7" cy="351.4" r="2.9" fill="#FFFFFF" opacity="0.2"/><circle cx="1177.4" cy="844.3" r="2.9" fill="#FFFFFF" opacity="0.4"/><circle cx="765.7" cy="437.6" r="2.6" fill="#FFFFFF" opacity="0.4"/><circle cx="33.2" cy="553.6" r="1.8" fill="#FFFFFF" opacity="0.4"/><circle cx="1236.9" cy="862.2" r="2.2" fill="#FFFFFF" opacity="0.3"/><circle cx="1214.4" cy="15.8" r="1.1" fill="#FFFFFF" opacity="0.2"/><circle cx="1256.6" cy="568.2" r="1.2" fill="#FFFFFF" opacity="0.3"/><circle cx="1352" cy="665.3" r="2.6" fill="#FFFFFF" opacity="0.3"/><circle cx="1403.7" cy="441.6" r="2.4" fill="#FFFFFF" opacity="0.3"/><circle cx="1166.2" cy="487.1" r="1.3" fill="#FFFFFF" opacity="0.4"/><circle cx="132" cy="374.9" r="2.8" fill="#FFFFFF" opacity="0.4"/><circle cx="948" cy="557.7" r="1.9" fill="#FFFFFF" opacity="0.3"/><circle cx="866.5" cy="949.8" r="1.3" fill="#FFFFFF" opacity="0.3"/><circle cx="69.9" cy="596.6" r="2.5" fill="#FFFFFF" opacity="0.3"/><circle cx="858.2" cy="835.3" r="2.7" fill="#FFFFFF" opacity="0.1"/><circle cx="423" cy="860" r="1.4" fill="#FFFFFF" opacity="0.3"/><circle cx="576.5" cy="61.7" r="2.9" fill="#FFFFFF" opacity="0.2"/><circle cx="1413.9" cy="815.5" r="1.9" fill="#FFFFFF" opacity="0.3"/><circle cx="1079.1" cy="991.9" r="1.9" fill="#FFFFFF" opacity="0.3"/><circle cx="878.2" cy="675.7" r="2" fill="#FFFFFF" opacity="0.3"/><circle cx="1543" cy="442.6" r="2.9" fill="#FFFFFF" opacity="0.4"/><circle cx="1427.6" cy="948.4" r="2.6" fill="#FFFFFF" opacity="0.4"/><circle cx="768" cy="23.2" r="2.4" fill="#FFFFFF" opacity="0.2"/><circle cx="130.2" cy="14.2" r="1.8" fill="#FFFFFF" opacity="0.4"/><circle cx="528.3" cy="393.1" r="2" fill="#FFFFFF" opacity="0.3"/><circle cx="1516.4" cy="70.8" r="2.2" fill="#FFFFFF" opacity="0.2"/><circle cx="1143.3" cy="314" r="1.6" fill="#FFFFFF" opacity="0.2"/><circle cx="963.7" cy="750.8" r="2" fill="#FFFFFF" opacity="0.4"/><circle cx="717.5" cy="194" r="2.8" fill="#FFFFFF" opacity="0.2"/><circle cx="606.6" cy="463.4" r="2.5" fill="#FFFFFF" opacity="0.4"/><circle cx="1552.5" cy="855.2" r="1.9" fill="#FFFFFF" opacity="0.2"/><circle cx="1352.9" cy="886.2" r="1.2" fill="#FFFFFF" opacity="0.4"/><circle cx="672.4" cy="853.2" r="3" fill="#FFFFFF" opacity="0.2"/><circle cx="443.8" cy="712.4" r="2.3" fill="#FFFFFF" opacity="0.4"/><circle cx="1377.8" cy="215.3" r="2" fill="#FFFFFF" opacity="0.4"/><path d="M -60 720 Q 480 580 960 700 Q 1360 790 1660 640 L 1660 1000 L -60 1000 Z" fill="#FFFFFF" opacity="0.05"/><rect width="1600" height="1000" fill="url(#vig)"/><rect width="1600" height="1000" filter="url(#grain)" opacity="0.16" style="mix-blend-mode:overlay"/></svg>