<svg xmlns="http://www.w3.org/2000/svg" viewBox="0 0 1600 1000" width="1600" height="1000" role="img" preserveAspectRatio="xMidYMid slice"><defs>
<filter id="grain" x="0" y="0" width="100%" height="100%">
  <feTurbulence type="fractalNoise" baseFrequency="0.9" numOctaves="3" stitchTiles="stitch" seed="7"/>
  <feColorMatrix type="saturate" values="0"/>
</filter>
<filter id="bloom" x="-60%" y="-60%" width="220%" height="220%">
  <feGaussianBlur stdDeviation="46"/>
</filter>
<filter id="haze" x="-30%" y="-200%" width="160%" height="500%">
  <feGaussianBlur stdDeviation="26"/>
</filter>
<filter id="soft" x="-30%" y="-30%" width="160%" height="160%">
  <feGaussianBlur stdDeviation="12"/>
</filter>
<radialGradient id="vig" ><stop offset="0.55" stop-color="#000814" stop-opacity="0"/><stop offset="1" stop-color="#000814" stop-opacity="0.38"/></radialGradient>
<linearGradient id="sk" x1="0" y1="0" x2="0" y2="1"><stop offset="0" stop-color="#141034" stop-opacity="1"/><stop offset="0.2" stop-color="#3A1F53" stop-opacity="1"/><stop offset="0.4" stop-color="#7E3355" stop-opacity="1"/><stop offset="0.6" stop-color="#C25A4B" stop-opacity="1"/><stop offset="0.8" stop-color="#EC8B4E" stop-opacity="1"/><stop offset="1" stop-color="#F7C982" stop-opacity="1"/></linearGradient><linearGradient id="wa" x1="0" y1="0" x2="0" y2="1"><stop offset="0" stop-color="#a4916d" stop-opacity="1"/><stop offset="0.35" stop-color="#0b2a46" stop-opacity="1"/><stop offset="1" stop-color="#061829" stop-opacity="1"/></linearGradient></defs><rect width="1600" height="1000" fill="url(#sk)"/><circle cx="658.3" cy="421.6" r="240" fill="#FFE7B8" opacity="0.24" filter="url(#bloom)"/><circle cx="658.3" cy="421.6" r="96" fill="#FFE7B8" opacity="0.3" filter="url(#bloom)"/><circle cx="658.3" cy="421.6" r="40" fill="#FFE7B8" opacity="0.95"/><path d="M -69.4 148.9 C -56.7 146.2, -18.7 135.9, 6.7 132.9 C 32 129.9, 57.3 134, 82.7 131 C 108 128, 133.4 115.5, 158.7 114.9 C 184.1 114.4, 209.4 125.5, 234.8 127.8 C 260.1 130.1, 285.4 127.1, 310.8 128.8 C 336.1 130.5, 361.5 134.5, 386.8 137.8 C 412.2 141.2, 450.2 147, 462.8 148.9 L 462.8 163.9 L -69.4 163.9 Z" fill="#cd664c" opacity="0.3" filter="url(#soft)"/><path d="M 851.5 331.8 C 858.3 329.4, 878.8 320.2, 892.4 317.4 C 906 314.7, 919.6 317.4, 933.2 315.2 C 946.8 313, 960.4 306.4, 974 304.1 C 987.6 301.9, 1001.2 299.8, 1014.8 301.8 C 1028.4 303.8, 1042 313.5, 1055.6 315.9 C 1069.2 318.4, 1082.8 313.9, 1096.4 316.5 C 1110 319.2, 1130.5 329.2, 1137.3 331.8 L 1137.3 346.5 L 851.5 346.5 Z" fill="#cd664c" opacity="0.3" filter="url(#soft)"/><path d="M 1389.3 354 C 1401.7 351.3, 1438.8 342.7, 1463.5 337.8 C 1488.3 333, 1513 326.5, 1537.7 324.8 C 1562.4 323.1, 1587.2 327.3, 1611.9 327.8 C 1636.6 328.2, 1661.4 328.8, 1686.1 327.5 C 1710.8 326.2, 1735.5 317.8, 1760.3 319.9 C 1785 322, 1809.7 334.4, 1834.5 340.1 C 1859.2 345.8, 1896.3 351.7, 1908.7 354 L 1908.7 375.4 L 1389.3 375.4 Z" fill="#cd664c" opacity="0.2" filter="url(#soft)"/><path d="M 347.8 415.6 C 355.5 413.1, 378.4 406.6, 393.7 401 C 409 395.5, 424.3 384.2, 439.6 382.1 C 454.9 380.1, 470.2 387.1, 485.5 388.7 C 500.8 390.3, 516.1 391.4, 531.4 391.9 C 546.7 392.3, 562 389.3, 577.3 391.4 C 592.6 393.4, 607.9 400, 623.2 404.1 C 638.5 408.1, 661.4 413.6, 669.1 415.6 L 669.1 435.6 L 347.8 435.6 Z" fill="#cd664c" opacity="0.2" filter="url(#soft)"/><rect x="-60" y="363.8" width="88.1" height="326.2" fill="#8b775d"/><rect x="-60" y="363.8" width="3" height="326.2" fill="#FFFFFF" opacity="0.1"/><rect x="33.6" y="353.4" width="41.9" height="336.6" fill="#8b775d"/><rect x="33.6" y="353.4" width="3" height="336.6" fill="#FFFFFF" opacity="0.1"/><rect x="93.6" y="430" width="86.9" height="260" fill="#8b775d"/><rect x="93.6" y="430" width="3" height="260" fill="#FFFFFF" opacity="0.1"/><rect x="190.8" y="432.6" width="55.5" height="257.4" fill="#8b775d"/><rect x="190.8" y="432.6" width="3" height="257.4" fill="#FFFFFF" opacity="0.1"/><rect x="264.7" y="383.6" width="89" height="306.4" fill="#8b775d"/><rect x="264.7" y="383.6" width="3" height="306.4" fill="#FFFFFF" opacity="0.1"/><rect x="362.9" y="395" width="44" height="295" fill="#8b775d"/><rect x="362.9" y="395" width="3" height="295" fill="#FFFFFF" opacity="0.1"/><rect x="425.1" y="392.1" width="49.2" height="297.9" fill="#8b775d"/><rect x="425.1" y="392.1" width="3" height="297.9" fill="#FFFFFF" opacity="0.1"/><rect x="487.8" y="566.2" width="62.4" height="123.8" fill="#8b775d"/><rect x="487.8" y="566.2" width="3" height="123.8" fill="#FFFFFF" opacity="0.1"/><rect x="517" y="506.2" width="3.5" height="60" fill="#8b775d"/><circle cx="519" cy="504.2" r="3.5" fill="#FF7A6B" opacity="0.9"/><rect x="565.5" y="551.2" width="71.6" height="138.8" fill="#8b775d"/><rect x="565.5" y="551.2" width="3" height="138.8" fill="#FFFFFF" opacity="0.1"/><rect x="642.8" y="538.8" width="67.8" height="151.2" fill="#8b775d"/><rect x="642.8" y="538.8" width="3" height="151.2" fill="#FFFFFF" opacity="0.1"/><rect x="717" y="480.9" width="61.7" height="209.1" fill="#8b775d"/><rect x="717" y="480.9" width="3" height="209.1" fill="#FFFFFF" opacity="0.1"/><rect x="794.7" y="509.4" width="45.4" height="180.6" fill="#8b775d"/><rect x="794.7" y="509.4" width="3" height="180.6" fill="#FFFFFF" opacity="0.1"/><rect x="845.8" y="392.5" width="40.7" height="297.5" fill="#8b775d"/><rect x="845.8" y="392.5" width="3" height="297.5" fill="#FFFFFF" opacity="0.1"/><rect x="864.2" y="332.5" width="3.5" height="60" fill="#8b775d"/><circle cx="866.2" cy="330.5" r="3.5" fill="#FF7A6B" opacity="0.9"/><rect x="893.3" y="409" width="92.6" height="281" fill="#8b775d"/><rect x="893.3" y="409" width="3" height="281" fill="#FFFFFF" opacity="0.1"/><rect x="1004" y="541" width="72.9" height="149" fill="#8b775d"/><rect x="1004" y="541" width="3" height="149" fill="#FFFFFF" opacity="0.1"/><rect x="1038.5" y="481" width="3.5" height="60" fill="#8b775d"/><circle cx="1040.5" cy="479" r="3.5" fill="#FF7A6B" opacity="0.9"/><rect x="1093.8" y="514.7" width="45.7" height="175.3" fill="#8b775d"/><rect x="1093.8" y="514.7" width="3" height="175.3" fill="#FFFFFF" opacity="0.1"/><rect x="1158.2" y="527.7" width="70.5" height="162.3" fill="#8b775d"/><rect x="1158.2" y="527.7" width="3" height="162.3" fill="#FFFFFF" opacity="0.1"/><rect x="1236.6" y="480" width="81.2" height="210" fill="#8b775d"/><rect x="1236.6" y="480" width="3" height="210" fill="#FFFFFF" opacity="0.1"/><rect x="1323.3" y="566.9" width="89.5" height="123.1" fill="#8b775d"/><rect x="1323.3" y="566.9" width="3" height="123.1" fill="#FFFFFF" opacity="0.1"/><rect x="1417" y="437" width="39.8" height="253" fill="#8b775d"/><rect x="1417" y="437" width="3" height="253" fill="#FFFFFF" opacity="0.1"/><rect x="1471.3" y="561" width="85.5" height="129" fill="#8b775d"/><rect x="1471.3" y="561" width="3" height="129" fill="#FFFFFF" opacity="0.1"/><rect x="1574.4" y="534.6" width="39.7" height="155.4" fill="#8b775d"/><rect x="1574.4" y="534.6" width="3" height="155.4" fill="#FFFFFF" opacity="0.1"/><rect x="1633.3" y="461.2" width="45.5" height="228.8" fill="#8b775d"/><rect x="1633.3" y="461.2" width="3" height="228.8" fill="#FFFFFF" opacity="0.1"/><rect x="1654.1" y="401.2" width="3.5" height="60" fill="#8b775d"/><circle cx="1656.1" cy="399.2" r="3.5" fill="#FF7A6B" opacity="0.9"/><rect x="-60" y="315.4" width="120.2" height="446.6" fill="#080d1c"/><rect x="-60" y="315.4" width="3" height="446.6" fill="#FFFFFF" opacity="0.1"/><rect x="-51" y="331.4" width="6" height="11" rx="1" fill="#FFD79A" opacity="0.5"/><rect x="-51" y="637.4" width="6" height="11" rx="1" fill="#FFD79A" opacity="0.5"/><rect x="-29" y="331.4" width="6" height="11" rx="1" fill="#FFD79A" opacity="0.4"/><rect x="-29" y="365.4" width="6" height="11" rx="1" fill="#FFD79A" opacity="0.5"/><rect x="-29" y="467.4" width="6" height="11" rx="1" fill="#FFD79A" opacity="0.7"/><rect x="-29" y="535.4" width="6" height="11" rx="1" fill="#FFD79A" opacity="0.4"/><rect x="-29" y="569.4" width="6" height="11" rx="1" fill="#FFD79A" opacity="0.9"/><rect x="-7" y="467.4" width="6" height="11" rx="1" fill="#FFD79A" opacity="0.8"/><rect x="-7" y="603.4" width="6" height="11" rx="1" fill="#FFD79A" opacity="0.6"/><rect x="15" y="433.4" width="6" height="11" rx="1" fill="#FFD79A" opacity="0.5"/><rect x="15" y="467.4" width="6" height="11" rx="1" fill="#FFD79A" opacity="0.7"/><rect x="15" y="671.4" width="6" height="11" rx="1" fill="#FFD79A" opacity="0.9"/><rect x="37" y="331.4" width="6" height="11" rx="1" fill="#FFD79A" opacity="0.4"/><rect x="37" y="365.4" width="6" height="11" rx="1" fill="#FFD79A" opacity="0.4"/><rect x="37" y="399.4" width="6" height="11" rx="1" fill="#FFD79A" opacity="0.7"/><rect x="37" y="467.4" width="6" height="11" rx="1" fill="#FFD79A" opacity="0.9"/><rect x="37" y="603.4" width="6" height="11" rx="1" fill="#FFD79A" opacity="0.7"/><rect x="37" y="637.4" width="6" height="11" rx="1" fill="#FFD79A" opacity="0.5"/><rect x="73.9" y="371.8" width="100.6" height="390.2" fill="#080d1c"/><rect x="73.9" y="371.8" width="3" height="390.2" fill="#FFFFFF" opacity="0.1"/><rect x="82.9" y="625.8" width="6" height="11" rx="1" fill="#FFD79A" opacity="0.7"/><rect x="82.9" y="659.8" width="6" height="11" rx="1" fill="#FFD79A" opacity="0.4"/><rect x="104.9" y="591.8" width="6" height="11" rx="1" fill="#FFD79A" opacity="0.8"/><rect x="126.9" y="489.8" width="6" height="11" rx="1" fill="#FFD79A" opacity="0.7"/><rect x="126.9" y="523.8" width="6" height="11" rx="1" fill="#FFD79A" opacity="0.6"/><rect x="126.9" y="557.8" width="6" height="11" rx="1" fill="#FFD79A" opacity="0.9"/><rect x="126.9" y="625.8" width="6" height="11" rx="1" fill="#FFD79A" opacity="0.5"/><rect x="126.9" y="659.8" width="6" height="11" rx="1" fill="#FFD79A" opacity="0.4"/><rect x="148.9" y="489.8" width="6" height="11" rx="1" fill="#FFD79A" opacity="0.7"/><rect x="148.9" y="523.8" width="6" height="11" rx="1" fill="#FFD79A" opacity="0.5"/><rect x="148.9" y="625.8" width="6" height="11" rx="1" fill="#FFD79A" opacity="0.9"/><rect x="148.9" y="659.8" width="6" height="11" rx="1" fill="#FFD79A" opacity="0.8"/><rect x="122.2" y="311.8" width="3.5" height="60" fill="#080d1c"/><circle cx="124.2" cy="309.8" r="3.5" fill="#FF7A6B" opacity="0.9"/><rect x="185.7" y="300" width="50.6" height="462" fill="#080d1c"/><rect x="185.7" y="300" width="3" height="462" fill="#FFFFFF" opacity="0.1"/><rect x="194.7" y="350" width="6" height="11" rx="1" fill="#FFD79A" opacity="0.5"/><rect x="194.7" y="520" width="6" height="11" rx="1" fill="#FFD79A" opacity="0.8"/><rect x="194.7" y="656" width="6" height="11" rx="1" fill="#FFD79A" opacity="0.5"/><rect x="216.7" y="350" width="6" height="11" rx="1" fill="#FFD79A" opacity="0.4"/><rect x="216.7" y="384" width="6" height="11" rx="1" fill="#FFD79A" opacity="0.8"/><rect x="216.7" y="486" width="6" height="11" rx="1" fill="#FFD79A" opacity="0.4"/><rect x="216.7" y="622" width="6" height="11" rx="1" fill="#FFD79A" opacity="0.8"/><rect x="209" y="240" width="3.5" height="60" fill="#080d1c"/><circle cx="211" cy="238" r="3.5" fill="#FF7A6B" opacity="0.9"/><rect x="244.6" y="506.9" width="117.9" height="255.1" fill="#080d1c"/><rect x="244.6" y="506.9" width="3" height="255.1" fill="#FFFFFF" opacity="0.1"/><rect x="253.6" y="590.9" width="6" height="11" rx="1" fill="#FFD79A" opacity="0.8"/><rect x="275.6" y="556.9" width="6" height="11" rx="1" fill="#FFD79A" opacity="0.7"/><rect x="275.6" y="590.9" width="6" height="11" rx="1" fill="#FFD79A" opacity="0.8"/><rect x="297.6" y="556.9" width="6" height="11" rx="1" fill="#FFD79A" opacity="0.9"/><rect x="319.6" y="556.9" width="6" height="11" rx="1" fill="#FFD79A" opacity="0.7"/><rect x="319.6" y="590.9" width="6" height="11" rx="1" fill="#FFD79A" opacity="0.5"/><rect x="341.6" y="522.9" width="6" height="11" rx="1" fill="#FFD79A" opacity="0.4"/><rect x="341.6" y="590.9" width="6" height="11" rx="1" fill="#FFD79A" opacity="0.9"/><rect x="374.8" y="580.1" width="96.2" height="181.9" fill="#080d1c"/><rect x="374.8" y="580.1" width="3" height="181.9" fill="#FFFFFF" opacity="0.1"/><rect x="383.8" y="664.1" width="6" height="11" rx="1" fill="#FFD79A" opacity="0.5"/><rect x="427.8" y="630.1" width="6" height="11" rx="1" fill="#FFD79A" opacity="0.4"/><rect x="427.8" y="664.1" width="6" height="11" rx="1" fill="#FFD79A" opacity="0.8"/><rect x="449.8" y="596.1" width="6" height="11" rx="1" fill="#FFD79A" opacity="0.7"/><rect x="449.8" y="664.1" width="6" height="11" rx="1" fill="#FFD79A" opacity="0.5"/><rect x="481.2" y="519.8" width="99.7" height="242.2" fill="#080d1c"/><rect x="481.2" y="519.8" width="3" height="242.2" fill="#FFFFFF" opacity="0.1"/><rect x="490.2" y="569.8" width="6" height="11" rx="1" fill="#FFD79A" opacity="0.5"/><rect x="490.2" y="603.8" width="6" height="11" rx="1" fill="#FFD79A" opacity="0.7"/><rect x="534.2" y="603.8" width="6" height="11" rx="1" fill="#FFD79A" opacity="0.4"/><rect x="534.2" y="671.8" width="6" height="11" rx="1" fill="#FFD79A" opacity="0.4"/><rect x="556.2" y="569.8" width="6" height="11" rx="1" fill="#FFD79A" opacity="0.9"/><rect x="592" y="457.7" width="125.6" height="304.3" fill="#080d1c"/><rect x="592" y="457.7" width="3" height="304.3" fill="#FFFFFF" opacity="0.1"/><rect x="601" y="473.7" width="6" height="11" rx="1" fill="#FFD79A" opacity="0.6"/><rect x="601" y="507.7" width="6" height="11" rx="1" fill="#FFD79A" opacity="0.9"/><rect x="601" y="541.7" width="6" height="11" rx="1" fill="#FFD79A" opacity="0.4"/><rect x="601" y="643.7" width="6" height="11" rx="1" fill="#FFD79A" opacity="0.8"/><rect x="623" y="473.7" width="6" height="11" rx="1" fill="#FFD79A" opacity="0.9"/><rect x="645" y="473.7" width="6" height="11" rx="1" fill="#FFD79A" opacity="0.5"/><rect x="645" y="507.7" width="6" height="11" rx="1" fill="#FFD79A" opacity="0.5"/><rect x="645" y="575.7" width="6" height="11" rx="1" fill="#FFD79A" opacity="0.7"/><rect x="645" y="609.7" width="6" height="11" rx="1" fill="#FFD79A" opacity="0.4"/><rect x="645" y="677.7" width="6" height="11" rx="1" fill="#FFD79A" opacity="0.4"/><rect x="667" y="643.7" width="6" height="11" rx="1" fill="#FFD79A" opacity="0.6"/><rect x="667" y="677.7" width="6" height="11" rx="1" fill="#FFD79A" opacity="0.8"/><rect x="689" y="677.7" width="6" height="11" rx="1" fill="#FFD79A" opacity="0.9"/><rect x="728.8" y="350.5" width="125.6" height="411.5" fill="#080d1c"/><rect x="728.8" y="350.5" width="3" height="411.5" fill="#FFFFFF" opacity="0.1"/><rect x="737.8" y="604.5" width="6" height="11" rx="1" fill="#FFD79A" opacity="0.6"/><rect x="737.8" y="638.5" width="6" height="11" rx="1" fill="#FFD79A" opacity="0.9"/><rect x="737.8" y="672.5" width="6" height="11" rx="1" fill="#FFD79A" opacity="0.5"/><rect x="759.8" y="604.5" width="6" height="11" rx="1" fill="#FFD79A" opacity="0.9"/><rect x="781.8" y="366.5" width="6" height="11" rx="1" fill="#FFD79A" opacity="0.8"/><rect x="781.8" y="638.5" width="6" height="11" rx="1" fill="#FFD79A" opacity="0.5"/><rect x="803.8" y="502.5" width="6" height="11" rx="1" fill="#FFD79A" opacity="0.6"/><rect x="803.8" y="536.5" width="6" height="11" rx="1" fill="#FFD79A" opacity="0.9"/><rect x="803.8" y="638.5" width="6" height="11" rx="1" fill="#FFD79A" opacity="0.4"/><rect x="825.8" y="434.5" width="6" height="11" rx="1" fill="#FFD79A" opacity="0.9"/><rect x="825.8" y="468.5" width="6" height="11" rx="1" fill="#FFD79A" opacity="0.5"/><rect x="825.8" y="502.5" width="6" height="11" rx="1" fill="#FFD79A" opacity="0.8"/><rect x="825.8" y="570.5" width="6" height="11" rx="1" fill="#FFD79A" opacity="0.5"/><rect x="825.8" y="604.5" width="6" height="11" rx="1" fill="#FFD79A" opacity="0.5"/><rect x="825.8" y="638.5" width="6" height="11" rx="1" fill="#FFD79A" opacity="0.8"/><rect x="860.6" y="405" width="103.1" height="357" fill="#080d1c"/><rect x="860.6" y="405" width="3" height="357" fill="#FFFFFF" opacity="0.1"/><rect x="869.6" y="421" width="6" height="11" rx="1" fill="#FFD79A" opacity="0.7"/><rect x="869.6" y="523" width="6" height="11" rx="1" fill="#FFD79A" opacity="0.6"/><rect x="913.6" y="523" width="6" height="11" rx="1" fill="#FFD79A" opacity="0.6"/><rect x="913.6" y="557" width="6" height="11" rx="1" fill="#FFD79A" opacity="0.9"/><rect x="913.6" y="659" width="6" height="11" rx="1" fill="#FFD79A" opacity="0.4"/><rect x="935.6" y="421" width="6" height="11" rx="1" fill="#FFD79A" opacity="0.6"/><rect x="935.6" y="455" width="6" height="11" rx="1" fill="#FFD79A" opacity="0.7"/><rect x="935.6" y="489" width="6" height="11" rx="1" fill="#FFD79A" opacity="0.7"/><rect x="935.6" y="625" width="6" height="11" rx="1" fill="#FFD79A" opacity="0.6"/><rect x="971.8" y="611.8" width="74.6" height="150.2" fill="#080d1c"/><rect x="971.8" y="611.8" width="3" height="150.2" fill="#FFFFFF" opacity="0.1"/><rect x="980.8" y="627.8" width="6" height="11" rx="1" fill="#FFD79A" opacity="0.7"/><rect x="980.8" y="661.8" width="6" height="11" rx="1" fill="#FFD79A" opacity="0.8"/><rect x="1002.8" y="661.8" width="6" height="11" rx="1" fill="#FFD79A" opacity="0.6"/><rect x="1007.1" y="551.8" width="3.5" height="60" fill="#080d1c"/><circle cx="1009.1" cy="549.8" r="3.5" fill="#FF7A6B" opacity="0.9"/><rect x="1062.6" y="363" width="55.9" height="399" fill="#080d1c"/><rect x="1062.6" y="363" width="3" height="399" fill="#FFFFFF" opacity="0.1"/><rect x="1071.6" y="447" width="6" height="11" rx="1" fill="#FFD79A" opacity="0.9"/><rect x="1093.6" y="379" width="6" height="11" rx="1" fill="#FFD79A" opacity="0.9"/><rect x="1093.6" y="413" width="6" height="11" rx="1" fill="#FFD79A" opacity="0.4"/><rect x="1135.1" y="500.8" width="81.9" height="261.2" fill="#080d1c"/><rect x="1135.1" y="500.8" width="3" height="261.2" fill="#FFFFFF" opacity="0.1"/><rect x="1144.1" y="550.8" width="6" height="11" rx="1" fill="#FFD79A" opacity="0.6"/><rect x="1144.1" y="584.8" width="6" height="11" rx="1" fill="#FFD79A" opacity="0.6"/><rect x="1144.1" y="618.8" width="6" height="11" rx="1" fill="#FFD79A" opacity="0.6"/><rect x="1166.1" y="550.8" width="6" height="11" rx="1" fill="#FFD79A" opacity="0.6"/><rect x="1166.1" y="584.8" width="6" height="11" rx="1" fill="#FFD79A" opacity="0.6"/><rect x="1166.1" y="652.8" width="6" height="11" rx="1" fill="#FFD79A" opacity="0.8"/><rect x="1188.1" y="550.8" width="6" height="11" rx="1" fill="#FFD79A" opacity="0.7"/><rect x="1188.1" y="584.8" width="6" height="11" rx="1" fill="#FFD79A" opacity="0.6"/><rect x="1230.1" y="521.2" width="102.7" height="240.8" fill="#080d1c"/><rect x="1230.1" y="521.2" width="3" height="240.8" fill="#FFFFFF" opacity="0.1"/><rect x="1239.1" y="673.2" width="6" height="11" rx="1" fill="#FFD79A" opacity="0.8"/><rect x="1261.1" y="571.2" width="6" height="11" rx="1" fill="#FFD79A" opacity="0.9"/><rect x="1261.1" y="605.2" width="6" height="11" rx="1" fill="#FFD79A" opacity="0.6"/><rect x="1283.1" y="571.2" width="6" height="11" rx="1" fill="#FFD79A" opacity="0.8"/><rect x="1283.1" y="605.2" width="6" height="11" rx="1" fill="#FFD79A" opacity="0.5"/><rect x="1305.1" y="571.2" width="6" height="11" rx="1" fill="#FFD79A" opacity="0.8"/><rect x="1305.1" y="673.2" width="6" height="11" rx="1" fill="#FFD79A" opacity="0.6"/><rect x="1343.6" y="449.3" width="51.3" height="312.7" fill="#080d1c"/><rect x="1343.6" y="449.3" width="3" height="312.7" fill="#FFFFFF" opacity="0.1"/><rect x="1352.6" y="567.3" width="6" height="11" rx="1" fill="#FFD79A" opacity="0.5"/><rect x="1352.6" y="635.3" width="6" height="11" rx="1" fill="#FFD79A" opacity="0.8"/><rect x="1374.6" y="533.3" width="6" height="11" rx="1" fill="#FFD79A" opacity="0.7"/><rect x="1374.6" y="635.3" width="6" height="11" rx="1" fill="#FFD79A" opacity="0.5"/><rect x="1374.6" y="669.3" width="6" height="11" rx="1" fill="#FFD79A" opacity="0.5"/><rect x="1401.5" y="361.9" width="86.5" height="400.1" fill="#080d1c"/><rect x="1401.5" y="361.9" width="3" height="400.1" fill="#FFFFFF" opacity="0.1"/><rect x="1410.5" y="445.9" width="6" height="11" rx="1" fill="#FFD79A" opacity="0.7"/><rect x="1410.5" y="479.9" width="6" height="11" rx="1" fill="#FFD79A" opacity="0.4"/><rect x="1410.5" y="581.9" width="6" height="11" rx="1" fill="#FFD79A" opacity="0.5"/><rect x="1410.5" y="615.9" width="6" height="11" rx="1" fill="#FFD79A" opacity="0.9"/><rect x="1432.5" y="581.9" width="6" height="11" rx="1" fill="#FFD79A" opacity="0.4"/><rect x="1432.5" y="615.9" width="6" height="11" rx="1" fill="#FFD79A" opacity="0.9"/><rect x="1432.5" y="649.9" width="6" height="11" rx="1" fill="#FFD79A" opacity="0.6"/><rect x="1454.5" y="377.9" width="6" height="11" rx="1" fill="#FFD79A" opacity="0.8"/><rect x="1454.5" y="445.9" width="6" height="11" rx="1" fill="#FFD79A" opacity="0.6"/><rect x="1454.5" y="581.9" width="6" height="11" rx="1" fill="#FFD79A" opacity="0.8"/><rect x="1454.5" y="615.9" width="6" height="11" rx="1" fill="#FFD79A" opacity="0.9"/><rect x="1454.5" y="649.9" width="6" height="11" rx="1" fill="#FFD79A" opacity="0.7"/><rect x="1507.6" y="495.7" width="73.2" height="266.3" fill="#080d1c"/><rect x="1507.6" y="495.7" width="3" height="266.3" fill="#FFFFFF" opacity="0.1"/><rect x="1516.6" y="545.7" width="6" height="11" rx="1" fill="#FFD79A" opacity="0.6"/><rect x="1516.6" y="579.7" width="6" height="11" rx="1" fill="#FFD79A" opacity="0.8"/><rect x="1516.6" y="647.7" width="6" height="11" rx="1" fill="#FFD79A" opacity="0.8"/><rect x="1516.6" y="681.7" width="6" height="11" rx="1" fill="#FFD79A" opacity="0.9"/><rect x="1538.6" y="511.7" width="6" height="11" rx="1" fill="#FFD79A" opacity="0.8"/><rect x="1538.6" y="613.7" width="6" height="11" rx="1" fill="#FFD79A" opacity="0.6"/><rect x="1560.6" y="511.7" width="6" height="11" rx="1" fill="#FFD79A" opacity="0.6"/><rect x="1560.6" y="545.7" width="6" height="11" rx="1" fill="#FFD79A" opacity="0.4"/><rect x="1560.6" y="579.7" width="6" height="11" rx="1" fill="#FFD79A" opacity="0.5"/><rect x="1542.2" y="435.7" width="3.5" height="60" fill="#080d1c"/><circle cx="1544.2" cy="433.7" r="3.5" fill="#FF7A6B" opacity="0.9"/><rect x="1598" y="304.3" width="102.4" height="457.7" fill="#080d1c"/><rect x="1598" y="304.3" width="3" height="457.7" fill="#FFFFFF" opacity="0.1"/><rect x="1607" y="422.3" width="6" height="11" rx="1" fill="#FFD79A" opacity="0.7"/><rect x="1607" y="456.3" width="6" height="11" rx="1" fill="#FFD79A" opacity="0.6"/><rect x="1629" y="320.3" width="6" height="11" rx="1" fill="#FFD79A" opacity="0.8"/><rect x="1629" y="388.3" width="6" height="11" rx="1" fill="#FFD79A" opacity="0.9"/><rect x="1629" y="422.3" width="6" height="11" rx="1" fill="#FFD79A" opacity="0.5"/><rect x="1629" y="456.3" width="6" height="11" rx="1" fill="#FFD79A" opacity="0.9"/><rect x="1629" y="592.3" width="6" height="11" rx="1" fill="#FFD79A" opacity="0.8"/><rect x="1629" y="626.3" width="6" height="11" rx="1" fill="#FFD79A" opacity="0.4"/><rect x="1629" y="660.3" width="6" height="11" rx="1" fill="#FFD79A" opacity="0.6"/><rect x="1651" y="354.3" width="6" height="11" rx="1" fill="#FFD79A" opacity="0.9"/><rect x="1651" y="558.3" width="6" height="11" rx="1" fill="#FFD79A" opacity="0.6"/><rect x="1651" y="626.3" width="6" height="11" rx="1" fill="#FFD79A" opacity="0.4"/><rect x="1673" y="456.3" width="6" height="11" rx="1" fill="#FFD79A" opacity="0.7"/><rect x="1673" y="524.3" width="6" height="11" rx="1" fill="#FFD79A" opacity="0.8"/><rect x="1673" y="558.3" width="6" height="11" rx="1" fill="#FFD79A" opacity="0.8"/><rect x="1673" y="592.3" width="6" height="11" rx="1" fill="#FFD79A" opacity="0.7"/><rect x="1673" y="626.3" width="6" height="11" rx="1" fill="#FFD79A" opacity="0.9"/><rect x="1673" y="660.3" width="6" height="11" rx="1" fill="#FFD79A" opacity="0.8"/><ellipse cx="800" cy="680" rx="1280" ry="42" fill="#f2aa68" opacity="0.5" filter="url(#haze)"/><rect x="0" y="700" width="1600" height="300" fill="url(#wa)"/><path d="M 632.3 700 L 684.3 700 L 868.3 1000 L 448.3 1000 Z" fill="#FFF3D4" opacity="0.14" filter="url(#soft)"/><rect x="602.5" y="840.9" width="107.3" height="2.8" rx="3" fill="#FFFFFF" opacity="0.2"/><rect x="664.6" y="989" width="92.3" height="5.2" rx="3" fill="#FFFFFF" opacity="0.1"/><rect x="485.4" y="781.6" width="38.7" height="2.1" rx="3" fill="#FFFFFF" opacity="0.1"/><rect x="676.6" y="980" width="117" height="5" rx="3" fill="#FFFFFF" opacity="0.2"/><rect x="434" y="907.6" width="66.5" height="3.8" rx="3" fill="#FFFFFF" opacity="0.1"/><rect x="303.1" y="894.8" width="121.4" height="3.6" rx="3" fill="#FFFFFF" opacity="0.2"/><rect x="950.3" y="942.3" width="84.7" height="4.4" rx="3" fill="#FFFFFF" opacity="0.2"/><rect x="581" y="776.5" width="100" height="2" rx="3" fill="#FFFFFF" opacity="0.2"/><rect x="940.8" y="1004.2" width="212.9" height="5.5" rx="3" fill="#FFFFFF" opacity="0.2"/><rect x="614.4" y="848.3" width="48.7" height="2.9" rx="3" fill="#FFFFFF" opacity="0.1"/><rect x="629.9" y="796.8" width="80.2" height="2.3" rx="3" fill="#FFFFFF" opacity="0.2"/><rect x="742.2" y="841.7" width="64.3" height="2.8" rx="3" fill="#FFFFFF" opacity="0.2"/><rect x="919.7" y="857.7" width="37.6" height="3" rx="3" fill="#FFFFFF" opacity="0.2"/><rect x="723.5" y="932.1" width="127.7" height="4.2" rx="3" fill="#FFFFFF" opacity="0.1"/><rect x="643.4" y="746.5" width="31.8" height="1.7" rx="3" fill="#FFFFFF" opacity="0.2"/><rect x="494.3" y="953.7" width="171.9" height="4.6" rx="3" fill="#FFFFFF" opacity="0.1"/><rect x="385.6" y="917.7" width="169" height="4" rx="3" fill="#FFFFFF" opacity="0.1"/><rect x="302.9" y="965" width="182.5" height="4.8" rx="3" fill="#FFFFFF" opacity="0.1"/><rect x="717.5" y="748.6" width="85.5" height="1.8" rx="3" fill="#FFFFFF" opacity="0.2"/><rect x="902" y="998.4" width="263.2" height="5.4" rx="3" fill="#FFFFFF" opacity="0.1"/><rect x="359.4" y="926.1" width="97.8" height="4.1" rx="3" fill="#FFFFFF" opacity="0.2"/><rect x="570.8" y="754.5" width="58.6" height="1.8" rx="3" fill="#FFFFFF" opacity="0.1"/><rect x="796.6" y="871.1" width="137.3" height="3.2" rx="3" fill="#FFFFFF" opacity="0.1"/><rect x="513.3" y="950" width="99.6" height="4.5" rx="3" fill="#FFFFFF" opacity="0.2"/><rect x="414.7" y="835.2" width="44.2" height="2.7" rx="3" fill="#FFFFFF" opacity="0.1"/><rect x="569.4" y="837.6" width="45.4" height="2.8" rx="3" fill="#FFFFFF" opacity="0.1"/><rect x="657" y="783.6" width="77" height="2.1" rx="3" fill="#FFFFFF" opacity="0.3"/><rect x="977.7" y="932" width="150.5" height="4.2" rx="3" fill="#FFFFFF" opacity="0.1"/><rect x="619.7" y="864.2" width="39" height="3.1" rx="3" fill="#FFFFFF" opacity="0.1"/><rect x="430.4" y="909.8" width="136.3" height="3.8" rx="3" fill="#FFFFFF" opacity="0.1"/><rect x="871.5" y="977.5" width="131.7" height="5" rx="3" fill="#FFFFFF" opacity="0.2"/><rect x="752.1" y="855" width="72.9" height="3" rx="3" fill="#FFFFFF" opacity="0.1"/><rect x="341.8" y="996.6" width="231.4" height="5.3" rx="3" fill="#FFFFFF" opacity="0.1"/><rect x="747.1" y="721.8" width="46.8" height="1.6" rx="3" fill="#FFFFFF" opacity="0.3"/><rect x="165.4" y="995.7" width="58.8" height="5.3" rx="3" fill="#FFFFFF" opacity="0.1"/><rect x="603.7" y="726.3" width="79.4" height="1.6" rx="3" fill="#FFFFFF" opacity="0.2"/><rect x="530.4" y="786.8" width="78.4" height="2.1" rx="3" fill="#FFFFFF" opacity="0"/><rect x="435.1" y="958.4" width="225" height="4.6" rx="3" fill="#FFFFFF" opacity="0"/><rect x="522.3" y="746" width="90.9" height="1.7" rx="3" fill="#FFFFFF" opacity="0.1"/><rect x="147.5" y="988.2" width="209.4" height="5.2" rx="3" fill="#FFFFFF" opacity="0.1"/><rect x="386.4" y="983.6" width="124.7" height="5.1" rx="3" fill="#FFFFFF" opacity="0.1"/><rect x="746.5" y="784.6" width="56.8" height="2.1" rx="3" fill="#FFFFFF" opacity="0.1"/><rect x="521.7" y="895.5" width="91.6" height="3.6" rx="3" fill="#FFFFFF" opacity="0.2"/><rect x="576.4" y="763.6" width="31.9" height="1.9" rx="3" fill="#FFFFFF" opacity="0.1"/><rect x="567" y="906.2" width="176.9" height="3.8" rx="3" fill="#FFFFFF" opacity="0.1"/><rect x="809.1" y="894.5" width="167.3" height="3.6" rx="3" fill="#FFFFFF" opacity="0.2"/><g transform="translate(0 1464) scale(1 -1)" opacity="0.16" filter="url(#soft)"><rect x="-60" y="437.1" width="89" height="324.9" fill="#0b1224"/><rect x="-60" y="437.1" width="3" height="324.9" fill="#FFFFFF" opacity="0.1"/><rect x="-51" y="589.1" width="6" height="11" rx="1" fill="#FFD79A" opacity="0.7"/><rect x="-29" y="623.1" width="6" height="11" rx="1" fill="#FFD79A" opacity="0.5"/><rect x="-29" y="657.1" width="6" height="11" rx="1" fill="#FFD79A" opacity="0.6"/><rect x="-7" y="521.1" width="6" height="11" rx="1" fill="#FFD79A" opacity="0.7"/><rect x="15" y="487.1" width="6" height="11" rx="1" fill="#FFD79A" opacity="0.7"/><rect x="15" y="521.1" width="6" height="11" rx="1" fill="#FFD79A" opacity="0.4"/><rect x="15" y="623.1" width="6" height="11" rx="1" fill="#FFD79A" opacity="0.4"/><rect x="41.8" y="333" width="94.4" height="429" fill="#0b1224"/><rect x="41.8" y="333" width="3" height="429" fill="#FFFFFF" opacity="0.1"/><rect x="50.8" y="349" width="6" height="11" rx="1" fill="#FFD79A" opacity="0.9"/><rect x="50.8" y="451" width="6" height="11" rx="1" fill="#FFD79A" opacity="0.4"/><rect x="50.8" y="587" width="6" height="11" rx="1" fill="#FFD79A" opacity="0.7"/><rect x="50.8" y="655" width="6" height="11" rx="1" fill="#FFD79A" opacity="0.7"/><rect x="72.8" y="349" width="6" height="11" rx="1" fill="#FFD79A" opacity="0.6"/><rect x="72.8" y="553" width="6" height="11" rx="1" fill="#FFD79A" opacity="0.8"/><rect x="72.8" y="655" width="6" height="11" rx="1" fill="#FFD79A" opacity="0.7"/><rect x="94.8" y="417" width="6" height="11" rx="1" fill="#FFD79A" opacity="0.4"/><rect x="94.8" y="519" width="6" height="11" rx="1" fill="#FFD79A" opacity="0.6"/><rect x="116.8" y="485" width="6" height="11" rx="1" fill="#FFD79A" opacity="0.7"/><rect x="116.8" y="519" width="6" height="11" rx="1" fill="#FFD79A" opacity="0.9"/><rect x="116.8" y="553" width="6" height="11" rx="1" fill="#FFD79A" opacity="0.6"/><rect x="116.8" y="587" width="6" height="11" rx="1" fill="#FFD79A" opacity="0.4"/><rect x="141.9" y="406.7" width="93" height="355.3" fill="#0b1224"/><rect x="141.9" y="406.7" width="3" height="355.3" fill="#FFFFFF" opacity="0.1"/><rect x="150.9" y="626.7" width="6" height="11" rx="1" fill="#FFD79A" opacity="0.7"/><rect x="172.9" y="490.7" width="6" height="11" rx="1" fill="#FFD79A" opacity="0.4"/><rect x="194.9" y="490.7" width="6" height="11" rx="1" fill="#FFD79A" opacity="0.5"/><rect x="194.9" y="626.7" width="6" height="11" rx="1" fill="#FFD79A" opacity="0.8"/><rect x="194.9" y="660.7" width="6" height="11" rx="1" fill="#FFD79A" opacity="0.4"/><rect x="216.9" y="490.7" width="6" height="11" rx="1" fill="#FFD79A" opacity="0.8"/><rect x="216.9" y="592.7" width="6" height="11" rx="1" fill="#FFD79A" opacity="0.6"/><rect x="249" y="448.3" width="46.1" height="313.7" fill="#0b1224"/><rect x="249" y="448.3" width="3" height="313.7" fill="#FFFFFF" opacity="0.1"/><rect x="258" y="498.3" width="6" height="11" rx="1" fill="#FFD79A" opacity="0.8"/><rect x="258" y="532.3" width="6" height="11" rx="1" fill="#FFD79A" opacity="0.4"/><rect x="280" y="532.3" width="6" height="11" rx="1" fill="#FFD79A" opacity="0.5"/><rect x="300" y="522.7" width="84.9" height="239.3" fill="#0b1224"/><rect x="300" y="522.7" width="3" height="239.3" fill="#FFFFFF" opacity="0.1"/><rect x="309" y="640.7" width="6" height="11" rx="1" fill="#FFD79A" opacity="0.7"/><rect x="331" y="572.7" width="6" height="11" rx="1" fill="#FFD79A" opacity="0.6"/><rect x="331" y="606.7" width="6" height="11" rx="1" fill="#FFD79A" opacity="0.8"/><rect x="331" y="640.7" width="6" height="11" rx="1" fill="#FFD79A" opacity="0.7"/><rect x="353" y="538.7" width="6" height="11" rx="1" fill="#FFD79A" opacity="0.4"/><rect x="353" y="572.7" width="6" height="11" rx="1" fill="#FFD79A" opacity="0.8"/><rect x="353" y="606.7" width="6" height="11" rx="1" fill="#FFD79A" opacity="0.8"/><rect x="353" y="640.7" width="6" height="11" rx="1" fill="#FFD79A" opacity="0.7"/><rect x="401.9" y="582.8" width="54.4" height="179.2" fill="#0b1224"/><rect x="401.9" y="582.8" width="3" height="179.2" fill="#FFFFFF" opacity="0.1"/><rect x="410.9" y="632.8" width="6" height="11" rx="1" fill="#FFD79A" opacity="0.4"/><rect x="432.9" y="598.8" width="6" height="11" rx="1" fill="#FFD79A" opacity="0.9"/><rect x="472.4" y="485.4" width="105.4" height="276.6" fill="#0b1224"/><rect x="472.4" y="485.4" width="3" height="276.6" fill="#FFFFFF" opacity="0.1"/><rect x="481.4" y="535.4" width="6" height="11" rx="1" fill="#FFD79A" opacity="0.5"/><rect x="481.4" y="569.4" width="6" height="11" rx="1" fill="#FFD79A" opacity="0.7"/><rect x="481.4" y="603.4" width="6" height="11" rx="1" fill="#FFD79A" opacity="0.7"/><rect x="503.4" y="569.4" width="6" height="11" rx="1" fill="#FFD79A" opacity="0.7"/><rect x="503.4" y="637.4" width="6" height="11" rx="1" fill="#FFD79A" opacity="0.9"/><rect x="503.4" y="671.4" width="6" height="11" rx="1" fill="#FFD79A" opacity="0.9"/><rect x="547.4" y="501.4" width="6" height="11" rx="1" fill="#FFD79A" opacity="0.5"/><rect x="547.4" y="535.4" width="6" height="11" rx="1" fill="#FFD79A" opacity="0.4"/><rect x="547.4" y="671.4" width="6" height="11" rx="1" fill="#FFD79A" opacity="0.9"/><rect x="595.1" y="591.2" width="68.8" height="170.8" fill="#0b1224"/><rect x="595.1" y="591.2" width="3" height="170.8" fill="#FFFFFF" opacity="0.1"/><rect x="604.1" y="675.2" width="6" height="11" rx="1" fill="#FFD79A" opacity="0.6"/><rect x="626.1" y="607.2" width="6" height="11" rx="1" fill="#FFD79A" opacity="0.9"/><rect x="672.1" y="300" width="88.3" height="462" fill="#0b1224"/><rect x="672.1" y="300" width="3" height="462" fill="#FFFFFF" opacity="0.1"/><rect x="681.1" y="316" width="6" height="11" rx="1" fill="#FFD79A" opacity="0.6"/><rect x="681.1" y="384" width="6" height="11" rx="1" fill="#FFD79A" opacity="0.5"/><rect x="681.1" y="452" width="6" height="11" rx="1" fill="#FFD79A" opacity="0.4"/><rect x="681.1" y="520" width="6" height="11" rx="1" fill="#FFD79A" opacity="0.5"/><rect x="703.1" y="452" width="6" height="11" rx="1" fill="#FFD79A" opacity="0.8"/><rect x="703.1" y="486" width="6" height="11" rx="1" fill="#FFD79A" opacity="0.4"/><rect x="703.1" y="588" width="6" height="11" rx="1" fill="#FFD79A" opacity="0.9"/><rect x="703.1" y="656" width="6" height="11" rx="1" fill="#FFD79A" opacity="0.9"/><rect x="725.1" y="520" width="6" height="11" rx="1" fill="#FFD79A" opacity="0.5"/><rect x="725.1" y="622" width="6" height="11" rx="1" fill="#FFD79A" opacity="0.8"/><rect x="725.1" y="656" width="6" height="11" rx="1" fill="#FFD79A" opacity="0.6"/><rect x="747.1" y="452" width="6" height="11" rx="1" fill="#FFD79A" opacity="0.4"/><rect x="747.1" y="486" width="6" height="11" rx="1" fill="#FFD79A" opacity="0.4"/><rect x="747.1" y="554" width="6" height="11" rx="1" fill="#FFD79A" opacity="0.7"/><rect x="747.1" y="588" width="6" height="11" rx="1" fill="#FFD79A" opacity="0.5"/><rect x="780" y="345.3" width="92.4" height="416.7" fill="#0b1224"/><rect x="780" y="345.3" width="3" height="416.7" fill="#FFFFFF" opacity="0.1"/><rect x="789" y="429.3" width="6" height="11" rx="1" fill="#FFD79A" opacity="0.9"/><rect x="789" y="463.3" width="6" height="11" rx="1" fill="#FFD79A" opacity="0.7"/><rect x="789" y="599.3" width="6" height="11" rx="1" fill="#FFD79A" opacity="0.8"/><rect x="789" y="633.3" width="6" height="11" rx="1" fill="#FFD79A" opacity="0.5"/><rect x="789" y="667.3" width="6" height="11" rx="1" fill="#FFD79A" opacity="0.9"/><rect x="811" y="395.3" width="6" height="11" rx="1" fill="#FFD79A" opacity="0.7"/><rect x="811" y="463.3" width="6" height="11" rx="1" fill="#FFD79A" opacity="0.4"/><rect x="811" y="497.3" width="6" height="11" rx="1" fill="#FFD79A" opacity="0.6"/><rect x="833" y="395.3" width="6" height="11" rx="1" fill="#FFD79A" opacity="0.6"/><rect x="833" y="633.3" width="6" height="11" rx="1" fill="#FFD79A" opacity="0.4"/><rect x="833" y="667.3" width="6" height="11" rx="1" fill="#FFD79A" opacity="0.5"/><rect x="855" y="395.3" width="6" height="11" rx="1" fill="#FFD79A" opacity="0.4"/><rect x="855" y="429.3" width="6" height="11" rx="1" fill="#FFD79A" opacity="0.9"/><rect x="855" y="497.3" width="6" height="11" rx="1" fill="#FFD79A" opacity="0.6"/><rect x="855" y="531.3" width="6" height="11" rx="1" fill="#FFD79A" opacity="0.5"/><rect x="855" y="633.3" width="6" height="11" rx="1" fill="#FFD79A" opacity="0.4"/><rect x="855" y="667.3" width="6" height="11" rx="1" fill="#FFD79A" opacity="0.6"/><rect x="876.6" y="311.1" width="118.9" height="450.9" fill="#0b1224"/><rect x="876.6" y="311.1" width="3" height="450.9" fill="#FFFFFF" opacity="0.1"/><rect x="885.6" y="327.1" width="6" height="11" rx="1" fill="#FFD79A" opacity="0.6"/><rect x="885.6" y="361.1" width="6" height="11" rx="1" fill="#FFD79A" opacity="0.4"/><rect x="885.6" y="395.1" width="6" height="11" rx="1" fill="#FFD79A" opacity="0.6"/><rect x="885.6" y="599.1" width="6" height="11" rx="1" fill="#FFD79A" opacity="0.7"/><rect x="907.6" y="531.1" width="6" height="11" rx="1" fill="#FFD79A" opacity="0.7"/><rect x="907.6" y="565.1" width="6" height="11" rx="1" fill="#FFD79A" opacity="0.7"/><rect x="907.6" y="599.1" width="6" height="11" rx="1" fill="#FFD79A" opacity="0.7"/><rect x="907.6" y="633.1" width="6" height="11" rx="1" fill="#FFD79A" opacity="0.8"/><rect x="929.6" y="327.1" width="6" height="11" rx="1" fill="#FFD79A" opacity="0.9"/><rect x="929.6" y="429.1" width="6" height="11" rx="1" fill="#FFD79A" opacity="0.4"/><rect x="929.6" y="497.1" width="6" height="11" rx="1" fill="#FFD79A" opacity="0.7"/><rect x="929.6" y="599.1" width="6" height="11" rx="1" fill="#FFD79A" opacity="0.9"/><rect x="951.6" y="395.1" width="6" height="11" rx="1" fill="#FFD79A" opacity="0.4"/><rect x="951.6" y="429.1" width="6" height="11" rx="1" fill="#FFD79A" opacity="0.4"/><rect x="951.6" y="463.1" width="6" height="11" rx="1" fill="#FFD79A" opacity="0.7"/><rect x="951.6" y="531.1" width="6" height="11" rx="1" fill="#FFD79A" opacity="0.7"/><rect x="951.6" y="667.1" width="6" height="11" rx="1" fill="#FFD79A" opacity="0.6"/><rect x="973.6" y="327.1" width="6" height="11" rx="1" fill="#FFD79A" opacity="0.8"/><rect x="973.6" y="361.1" width="6" height="11" rx="1" fill="#FFD79A" opacity="0.4"/><rect x="973.6" y="429.1" width="6" height="11" rx="1" fill="#FFD79A" opacity="0.4"/><rect x="973.6" y="497.1" width="6" height="11" rx="1" fill="#FFD79A" opacity="0.5"/><rect x="973.6" y="531.1" width="6" height="11" rx="1" fill="#FFD79A" opacity="0.4"/><rect x="973.6" y="565.1" width="6" height="11" rx="1" fill="#FFD79A" opacity="0.4"/><rect x="973.6" y="599.1" width="6" height="11" rx="1" fill="#FFD79A" opacity="0.7"/><rect x="973.6" y="633.1" width="6" height="11" rx="1" fill="#FFD79A" opacity="0.9"/><rect x="1004.1" y="473.4" width="102.2" height="288.6" fill="#0b1224"/><rect x="1004.1" y="473.4" width="3" height="288.6" fill="#FFFFFF" opacity="0.1"/><rect x="1013.1" y="591.4" width="6" height="11" rx="1" fill="#FFD79A" opacity="0.5"/><rect x="1013.1" y="659.4" width="6" height="11" rx="1" fill="#FFD79A" opacity="0.4"/><rect x="1035.1" y="557.4" width="6" height="11" rx="1" fill="#FFD79A" opacity="0.4"/><rect x="1035.1" y="591.4" width="6" height="11" rx="1" fill="#FFD79A" opacity="0.6"/><rect x="1035.1" y="625.4" width="6" height="11" rx="1" fill="#FFD79A" opacity="0.8"/><rect x="1057.1" y="557.4" width="6" height="11" rx="1" fill="#FFD79A" opacity="0.9"/><rect x="1057.1" y="659.4" width="6" height="11" rx="1" fill="#FFD79A" opacity="0.5"/><rect x="1079.1" y="489.4" width="6" height="11" rx="1" fill="#FFD79A" opacity="0.7"/><rect x="1079.1" y="591.4" width="6" height="11" rx="1" fill="#FFD79A" opacity="0.5"/><rect x="1117.8" y="400.7" width="58.4" height="361.3" fill="#0b1224"/><rect x="1117.8" y="400.7" width="3" height="361.3" fill="#FFFFFF" opacity="0.1"/><rect x="1126.8" y="586.7" width="6" height="11" rx="1" fill="#FFD79A" opacity="0.5"/><rect x="1148.8" y="416.7" width="6" height="11" rx="1" fill="#FFD79A" opacity="0.5"/><rect x="1148.8" y="450.7" width="6" height="11" rx="1" fill="#FFD79A" opacity="0.6"/><rect x="1148.8" y="552.7" width="6" height="11" rx="1" fill="#FFD79A" opacity="0.6"/><rect x="1181.9" y="536.2" width="73.3" height="225.8" fill="#0b1224"/><rect x="1181.9" y="536.2" width="3" height="225.8" fill="#FFFFFF" opacity="0.1"/><rect x="1190.9" y="586.2" width="6" height="11" rx="1" fill="#FFD79A" opacity="0.4"/><rect x="1190.9" y="654.2" width="6" height="11" rx="1" fill="#FFD79A" opacity="0.4"/><rect x="1212.9" y="620.2" width="6" height="11" rx="1" fill="#FFD79A" opacity="0.8"/><rect x="1212.9" y="654.2" width="6" height="11" rx="1" fill="#FFD79A" opacity="0.4"/><rect x="1234.9" y="552.2" width="6" height="11" rx="1" fill="#FFD79A" opacity="0.4"/><rect x="1234.9" y="586.2" width="6" height="11" rx="1" fill="#FFD79A" opacity="0.9"/><rect x="1268.8" y="525.9" width="110.8" height="236.1" fill="#0b1224"/><rect x="1268.8" y="525.9" width="3" height="236.1" fill="#FFFFFF" opacity="0.1"/><rect x="1277.8" y="541.9" width="6" height="11" rx="1" fill="#FFD79A" opacity="0.6"/><rect x="1277.8" y="575.9" width="6" height="11" rx="1" fill="#FFD79A" opacity="0.5"/><rect x="1277.8" y="643.9" width="6" height="11" rx="1" fill="#FFD79A" opacity="0.4"/><rect x="1299.8" y="643.9" width="6" height="11" rx="1" fill="#FFD79A" opacity="0.7"/><rect x="1321.8" y="541.9" width="6" height="11" rx="1" fill="#FFD79A" opacity="0.6"/><rect x="1343.8" y="575.9" width="6" height="11" rx="1" fill="#FFD79A" opacity="0.7"/><rect x="1343.8" y="643.9" width="6" height="11" rx="1" fill="#FFD79A" opacity="0.4"/><rect x="1343.8" y="677.9" width="6" height="11" rx="1" fill="#FFD79A" opacity="0.6"/><rect x="1365.8" y="541.9" width="6" height="11" rx="1" fill="#FFD79A" opacity="0.8"/><rect x="1365.8" y="677.9" width="6" height="11" rx="1" fill="#FFD79A" opacity="0.8"/><rect x="1387.6" y="604.8" width="56.2" height="157.2" fill="#0b1224"/><rect x="1387.6" y="604.8" width="3" height="157.2" fill="#FFFFFF" opacity="0.1"/><rect x="1396.6" y="654.8" width="6" height="11" rx="1" fill="#FFD79A" opacity="0.7"/><rect x="1413.7" y="544.8" width="3.5" height="60" fill="#0b1224"/><circle cx="1415.7" cy="542.8" r="3.5" fill="#FF7A6B" opacity="0.9"/><rect x="1449.6" y="479.4" width="76" height="282.6" fill="#0b1224"/><rect x="1449.6" y="479.4" width="3" height="282.6" fill="#FFFFFF" opacity="0.1"/><rect x="1458.6" y="495.4" width="6" height="11" rx="1" fill="#FFD79A" opacity="0.4"/><rect x="1458.6" y="563.4" width="6" height="11" rx="1" fill="#FFD79A" opacity="0.7"/><rect x="1458.6" y="597.4" width="6" height="11" rx="1" fill="#FFD79A" opacity="0.7"/><rect x="1480.6" y="597.4" width="6" height="11" rx="1" fill="#FFD79A" opacity="0.8"/><rect x="1502.6" y="631.4" width="6" height="11" rx="1" fill="#FFD79A" opacity="0.5"/><rect x="1535.6" y="421.6" width="101.5" height="340.4" fill="#0b1224"/><rect x="1535.6" y="421.6" width="3" height="340.4" fill="#FFFFFF" opacity="0.1"/><rect x="1544.6" y="505.6" width="6" height="11" rx="1" fill="#FFD79A" opacity="0.8"/><rect x="1544.6" y="641.6" width="6" height="11" rx="1" fill="#FFD79A" opacity="0.4"/><rect x="1566.6" y="437.6" width="6" height="11" rx="1" fill="#FFD79A" opacity="0.6"/><rect x="1566.6" y="505.6" width="6" height="11" rx="1" fill="#FFD79A" opacity="0.4"/><rect x="1566.6" y="539.6" width="6" height="11" rx="1" fill="#FFD79A" opacity="0.8"/><rect x="1566.6" y="641.6" width="6" height="11" rx="1" fill="#FFD79A" opacity="0.4"/><rect x="1566.6" y="675.6" width="6" height="11" rx="1" fill="#FFD79A" opacity="0.7"/><rect x="1588.6" y="505.6" width="6" height="11" rx="1" fill="#FFD79A" opacity="0.5"/><rect x="1588.6" y="573.6" width="6" height="11" rx="1" fill="#FFD79A" opacity="0.6"/><rect x="1610.6" y="437.6" width="6" height="11" rx="1" fill="#FFD79A" opacity="0.7"/><rect x="1610.6" y="573.6" width="6" height="11" rx="1" fill="#FFD79A" opacity="0.9"/><rect x="1610.6" y="641.6" width="6" height="11" rx="1" fill="#FFD79A" opacity="0.5"/><rect x="1610.6" y="675.6" width="6" height="11" rx="1" fill="#FFD79A" opacity="0.7"/><rect x="1656.8" y="419.5" width="62.7" height="342.5" fill="#0b1224"/><rect x="1656.8" y="419.5" width="3" height="342.5" fill="#FFFFFF" opacity="0.1"/><rect x="1665.8" y="639.5" width="6" height="11" rx="1" fill="#FFD79A" opacity="0.9"/><rect x="1687.8" y="435.5" width="6" height="11" rx="1" fill="#FFD79A" opacity="0.4"/><rect x="1687.8" y="469.5" width="6" height="11" rx="1" fill="#FFD79A" opacity="0.5"/></g><rect width="1600" height="1000" fill="url(#vig)"/><rect width="1600" height="1000" filter="url(#grain)" opacity="0.16" style="mix-blend-mode:overlay"/></svg>